#!OML:ASF H:\Terrain\Walking\May29\JustinRory\rory.ASF
:FULLY-SPECIFIED
:DEGREES
1580
root 13.0964 18.5317 9.44417 -178.791 4.24834 175.927
lowerback 4.21278 0.845901 -6.53735
upperback 0.249946 0.890013 -1.91888
thorax -2.17121 0.547603 1.62773
lowerneck -8.63301 -4.91734 -5.22442
upperneck 19.653 -5.63117 2.16884
head 7.69117 -2.58457 1.09506
rclavicle -3.23025e-016 -2.46493e-014
rhumerus -27.5915 -23.8809 -54.3821
rradius 29.0672
rwrist -0.181625
rhand -20.5611 29.2701
rfingers 7.12502
rthumb 5.79813 -0.630552
lclavicle -3.23025e-016 -2.46493e-014
lhumerus -30.0563 17.611 57.958
lradius 32.8878
lwrist 28.4931
lhand -23.5229 26.9896
lfingers 7.12502
lthumb 2.93812 56.9491
rfemur -9.28983 1.68275 13.1528
rtibia 34.7141
rfoot -15.423 -14.6389
rtoes 6.11649
lfemur -16.3284 -3.22391 -19.5511
ltibia 26.2211
lfoot -9.52123 7.34702
ltoes -2.50895
1581
root 13.0701 18.5158 9.42321 -178.899 3.73674 175.74
lowerback 4.02548 0.832899 -6.70706
upperback 0.356652 0.897471 -2.04601
thorax -1.95601 0.54985 1.59447
lowerneck -8.5582 -5.02217 -5.58616
upperneck 19.7794 -5.77828 2.53524
head 7.74878 -2.64153 1.26181
rclavicle -3.85145e-015 -2.46493e-014
rhumerus -26.9566 -23.9871 -55.0374
rradius 29.5745
rwrist -0.97408
rhand -20.759 28.9901
rfingers 7.12502
rthumb 5.60703 -0.915752
lclavicle -3.85145e-015 -2.46493e-014
lhumerus -28.2284 16.7508 58.6686
lradius 32.8991
lwrist 26.8273
lhand -23.6101 27.3308
lfingers 7.12502
lthumb 2.85388 57.2915
rfemur -10.0515 1.14655 12.8457
rtibia 36.5473
rfoot -14.9129 -14.8597
rtoes 2.97053
lfemur -16.3213 -2.96652 -19.8723
ltibia 26.3622
lfoot -9.21078 6.53187
ltoes -4.46292
1582
root 13.037 18.5003 9.40337 -179.082 3.32058 175.477
lowerback 3.76589 0.771526 -6.91823
upperback 0.559121 0.855297 -2.16339
thorax -1.59774 0.522527 1.59924
lowerneck -8.34363 -4.96718 -5.73219
upperneck 19.6937 -5.69411 2.60137
head 7.68523 -2.60547 1.32097
rclavicle -5.01931e-015 -4.77083e-015
rhumerus -26.1795 -23.7646 -55.8998
rradius 30.2355
rwrist -1.8721
rhand -21.2302 29.1019
rfingers 7.12502
rthumb 5.15211 -0.815492
lclavicle -5.01931e-015 -4.77083e-015
lhumerus -26.5571 15.998 59.3284
lradius 33.0153
lwrist 25.0724
lhand -23.6569 27.1642
lfingers 7.12502
lthumb 2.8087 57.1254
rfemur -10.8446 0.622877 12.3888
rtibia 38.5322
rfoot -14.4197 -14.8491
rtoes 0.548406
lfemur -16.1927 -2.85536 -20.3216
ltibia 26.4938
lfoot -9.18352 5.96146
ltoes -3.83826
1583
root 13.0015 18.4839 9.38247 -179.339 2.95247 175.305
lowerback 3.75221 0.60422 -7.05247
upperback 0.772082 0.651009 -2.19131
thorax -1.35386 0.414488 1.65798
lowerneck -8.68194 -4.91968 -5.97054
upperneck 19.833 -5.54733 2.44858
head 7.78999 -2.56781 1.31598
rclavicle -1.2424e-015 9.54166e-015
rhumerus -25.0398 -22.8595 -57.0421
rradius 30.9013
rwrist -2.85272
rhand -22.008 29.0602
rfingers 7.12502
rthumb 4.40104 -0.874116
lclavicle -1.2424e-015 9.54166e-015
lhumerus -25.0111 15.7436 59.8497
lradius 32.9869
lwrist 23.3322
lhand -24.4122 26.7744
lfingers 7.12502
lthumb 2.07923 56.744
rfemur -11.6278 0.143458 12.0061
rtibia 40.6774
rfoot -13.921 -14.5873
rtoes -0.93885
lfemur -15.9158 -2.82859 -20.699
ltibia 26.5122
lfoot -9.17106 5.63299
ltoes -3.79033
1584
root 12.9711 18.4721 9.36775 -179.68 2.54629 174.885
lowerback 4.19873 0.553037 -7.54128
upperback 0.802543 0.537309 -2.26647
thorax -1.56547 0.373059 1.85314
lowerneck -9.17639 -5.05264 -6.09952
upperneck 20.3306 -5.62025 2.22235
head 8.04731 -2.62319 1.24345
rclavicle 5.01931e-015 3.57812e-015
rhumerus -24.1868 -22.2774 -57.9255
rradius 31.3528
rwrist -3.53237
rhand -22.4481 29.2311
rfingers 7.12502
rthumb 3.97607 -0.711514
lclavicle 5.01931e-015 3.57812e-015
lhumerus -23.5391 15.1853 60.4662
lradius 32.8965
lwrist 21.7429
lhand -25.1814 26.6008
lfingers 7.12502
lthumb 1.33635 56.5763
rfemur -12.4148 -0.408258 11.3208
rtibia 42.9346
rfoot -13.5451 -13.8847
rtoes -2.02862
lfemur -15.5119 -2.89213 -21.3536
ltibia 26.4019
lfoot -9.12805 5.49477
ltoes -4.4506
1585
root 12.9414 18.4699 9.3605 -179.971 1.83325 174.156
lowerback 4.88806 0.568189 -8.25357
upperback 0.64256 0.466555 -2.50193
thorax -2.11323 0.376755 2.00014
lowerneck -9.08947 -5.1798 -5.98496
upperneck 20.5487 -5.75001 2.01245
head 8.10077 -2.68486 1.14442
rclavicle -4.27387e-015 -1.47101e-014
rhumerus -24.0506 -22.0528 -58.3864
rradius 31.8507
rwrist -4.07359
rhand -22.5525 29.6186
rfingers 7.12502
rthumb 3.87527 -0.325939
lclavicle -4.27387e-015 -1.47101e-014
lhumerus -22.1998 13.9102 61.2138
lradius 33.0205
lwrist 20.4608
lhand -24.0074 25.5569
lfingers 7.12502
lthumb 2.47019 55.5223
rfemur -13.2811 -1.11293 10.2842
rtibia 45.2417
rfoot -13.3013 -13.0866
rtoes -2.62849
lfemur -15.1535 -3.10103 -22.3487
ltibia 26.2025
lfoot -8.88838 5.21735
ltoes -5.48641
